<svg width="27" height="27" viewBox="0 0 27 27" fill="none" xmlns="http://www.w3.org/2000/svg">
<path d="M11.3826 3.79641C11.3309 3.74471 11.2686 3.70497 11.1999 3.67999C11.1312 3.65501 11.0578 3.6454 10.985 3.65184C10.9122 3.65827 10.8417 3.6806 10.7784 3.71724C10.7151 3.75388 10.6607 3.80394 10.6189 3.86391C9.5641 5.36934 8.99887 7.16324 9.00013 9.00141C9.00105 9.39519 9.02735 9.78851 9.07888 10.1789L0.39013 22.0289C0.105736 22.4135 -0.0306888 22.8877 0.00580645 23.3647C0.0423017 23.8416 0.249278 24.2895 0.58888 24.6264L2.37513 26.4127C2.71202 26.7523 3.15991 26.9592 3.63687 26.9957C4.11383 27.0322 4.58799 26.8958 4.97263 26.6114L16.8239 17.9202C17.2138 17.9725 17.6067 17.9996 18.0001 18.0014C19.8376 18.0031 21.631 17.4388 23.1364 16.3852C23.1963 16.3433 23.2464 16.2889 23.283 16.2256C23.3197 16.1624 23.342 16.0919 23.3484 16.019C23.3549 15.9462 23.3453 15.8729 23.3203 15.8042C23.2953 15.7355 23.2556 15.6731 23.2039 15.6214L11.3826 3.79641ZM11.7089 16.7064L9.70888 18.7064C9.61695 18.8032 9.50657 18.8806 9.38426 18.934C9.26194 18.9874 9.13017 19.0158 8.9967 19.0176C8.86324 19.0193 8.73078 18.9942 8.60714 18.9439C8.4835 18.8937 8.37118 18.8191 8.2768 18.7247C8.18241 18.6304 8.10788 18.518 8.05759 18.3944C8.0073 18.2708 7.98227 18.1383 7.98398 18.0048C7.98569 17.8714 8.0141 17.7396 8.06754 17.6173C8.12098 17.495 8.19836 17.3846 8.29513 17.2927L10.2951 15.2927C10.4842 15.113 10.7359 15.0144 10.9967 15.0177C11.2575 15.0211 11.5066 15.1261 11.691 15.3105C11.8754 15.4949 11.9805 15.7441 11.9838 16.0048C11.9872 16.2656 11.8885 16.5173 11.7089 16.7064ZM25.3839 14.1364C25.3421 14.1966 25.2876 14.2468 25.2242 14.2836C25.1608 14.3204 25.0902 14.3428 25.0172 14.3492C24.9442 14.3557 24.8707 14.346 24.8019 14.3209C24.733 14.2958 24.6706 14.2558 24.6189 14.2039L12.7976 2.38266C12.7457 2.33097 12.7058 2.2685 12.6807 2.19967C12.6556 2.13084 12.6459 2.05734 12.6523 1.98436C12.6588 1.91138 12.6812 1.8407 12.7179 1.77733C12.7547 1.71397 12.805 1.65945 12.8651 1.61766C14.5966 0.409463 16.6981 -0.150862 18.8012 0.0348705C20.9044 0.220602 22.8751 1.14054 24.368 2.63349C25.861 4.12644 26.7809 6.09716 26.9667 8.20032C27.1524 10.3035 26.5921 12.4049 25.3839 14.1364Z" fill="url(#paint0_linear_4177_221)"/>
<defs>
<linearGradient id="paint0_linear_4177_221" x1="0" y1="13.5008" x2="27.0015" y2="13.5008" gradientUnits="userSpaceOnUse">
<stop stop-color="#FC4A1A"/>
<stop offset="1" stop-color="#F7B733"/>
</linearGradient>
</defs>
</svg>
