<svg width="25" height="27" viewBox="0 0 25 27" fill="none" xmlns="http://www.w3.org/2000/svg">
<path d="M24.615 0.213374C24.4958 0.118898 24.3564 0.0532645 24.2076 0.0216052C24.0589 -0.0100541 23.9048 -0.00688168 23.7575 0.0308744L7.7575 4.03087C7.54137 4.0849 7.34947 4.20955 7.21224 4.38505C7.07501 4.56055 7.00032 4.77684 7 4.99962V18.7621C6.16571 18.2047 5.16904 17.9421 4.16838 18.016C3.16772 18.09 2.22047 18.4962 1.47718 19.1702C0.733878 19.8443 0.237169 20.7474 0.065982 21.736C-0.105205 22.7247 0.0589491 23.7423 0.53236 24.6269C1.00577 25.5116 1.76128 26.2127 2.67882 26.6188C3.59637 27.0249 4.62331 27.1126 5.59646 26.8682C6.56961 26.6237 7.43313 26.061 8.04981 25.2694C8.66648 24.4779 9.00093 23.503 9 22.4996V10.7809L23 7.28087V14.7621C22.1657 14.2047 21.169 13.9421 20.1684 14.016C19.1677 14.09 18.2205 14.4962 17.4772 15.1702C16.7339 15.8443 16.2372 16.7474 16.066 17.736C15.8948 18.7247 16.0589 19.7423 16.5324 20.6269C17.0058 21.5116 17.7613 22.2127 18.6788 22.6188C19.5964 23.0249 20.6233 23.1126 21.5965 22.8682C22.5696 22.6237 23.4331 22.061 24.0498 21.2694C24.6665 20.4779 25.0009 19.503 25 18.4996V0.999624C24.9997 0.847953 24.9648 0.698348 24.8981 0.56213C24.8314 0.425913 24.7346 0.306652 24.615 0.213374Z" fill="url(#paint0_linear_4177_25)"/>
<defs>
<linearGradient id="paint0_linear_4177_25" x1="0" y1="13.5019" x2="25" y2="13.5019" gradientUnits="userSpaceOnUse">
<stop stop-color="#FC4A1A"/>
<stop offset="1" stop-color="#F7B733"/>
</linearGradient>
</defs>
</svg>
